HIERARCHY
ROOT root
{
	OFFSET 0.000000 0.000000 0.000000
	CHANNELS 6 Xposition Yposition Zposition Zrotation Yrotation Xrotation
	JOINT lhip
	{
		OFFSET 0.058581 -0.082280 -0.017664
		CHANNELS 3 Zrotation Yrotation Xrotation
		JOINT lknee
		{
			OFFSET 0.043451 -0.386469 0.008037
			CHANNELS 3 Zrotation Yrotation Xrotation
			JOINT lankle
			{
				OFFSET -0.014790 -0.426874 -0.037428
				CHANNELS 3 Zrotation Yrotation Xrotation
				JOINT ltoe
				{
					OFFSET 0.041054 -0.060286 0.122042
					CHANNELS 3 Zrotation Yrotation Xrotation
					End Site
					{
						OFFSET 0.000000 0.000000 0.000000
					}
				}
			}
		}
	}
	JOINT rhip
	{
		OFFSET -0.060310 -0.090513 -0.013543
		CHANNELS 3 Zrotation Yrotation Xrotation
		JOINT rknee
		{
			OFFSET -0.043257 -0.383688 -0.004843
			CHANNELS 3 Zrotation Yrotation Xrotation
			JOINT rankle
			{
				OFFSET 0.019056 -0.420046 -0.034562
				CHANNELS 3 Zrotation Yrotation Xrotation
				JOINT rtoe
				{
					OFFSET -0.034840 -0.062106 0.130323
					CHANNELS 3 Zrotation Yrotation Xrotation
					End Site
					{
						OFFSET 0.000000 0.000000 0.000000
					}
				}
			}
		}
	}
	JOINT lowerback
	{
		OFFSET 0.004439 0.124404 -0.038385
		CHANNELS 3 Zrotation Yrotation Xrotation
		JOINT upperback
		{
			OFFSET 0.004488 0.137956 0.026820
			CHANNELS 3 Zrotation Yrotation Xrotation
			JOINT chest
			{
				OFFSET -0.002265 0.056032 0.002855
				CHANNELS 3 Zrotation Yrotation Xrotation
				JOINT lowerneck
				{
					OFFSET -0.013390 0.211636 -0.033468
					CHANNELS 3 Zrotation Yrotation Xrotation
					JOINT upperneck
					{
						OFFSET 0.010113 0.088937 0.050410
						CHANNELS 3 Zrotation Yrotation Xrotation
						End Site
						{
							OFFSET 0.000000 0.000000 0.000000
						}
					}
				}
				JOINT lclavicle
				{
					OFFSET 0.071702 0.114000 -0.018898
					CHANNELS 3 Zrotation Yrotation Xrotation
					JOINT lshoulder
					{
						OFFSET 0.122921 0.045205 -0.019046
						CHANNELS 3 Zrotation Yrotation Xrotation
						JOINT lelbow
						{
							OFFSET 0.255332 -0.015649 -0.022946
							CHANNELS 3 Zrotation Yrotation Xrotation
							JOINT lwrist
							{
								OFFSET 0.265709 0.012698 -0.007375
								CHANNELS 3 Zrotation Yrotation Xrotation
								End Site
								{
									OFFSET 0.000000 0.000000 0.000000
								}
							}
						}
					}
				}
				JOINT rclavicle
				{
					OFFSET -0.082954 0.112472 -0.023707
					CHANNELS 3 Zrotation Yrotation Xrotation
					JOINT rshoulder
					{
						OFFSET -0.113228 0.046853 -0.008472
						CHANNELS 3 Zrotation Yrotation Xrotation
						JOINT relbow
						{
							OFFSET -0.260127 -0.014369 -0.031269
							CHANNELS 3 Zrotation Yrotation Xrotation
							JOINT rwrist
							{
								OFFSET -0.269108 0.006794 -0.006027
								CHANNELS 3 Zrotation Yrotation Xrotation
								End Site
								{
									OFFSET 0.000000 0.000000 0.000000
								}
							}
						}
					}
				}
			}
		}
	}
}
MOTION
Frames: 15
Frame Time: 0.033333
1.767366 0.750003 0.982249 -88.318343 1.952304 83.581323 0.285012 -0.092494 6.517083 -2.621972 -15.863731 6.910734 7.836899 9.991458 -19.867394 0.000000 -0.000000 0.000000 2.344047 -3.507302 3.676729 3.167502 3.404524 11.415683 0.770890 -3.114526 -16.159819 0.000000 -0.000000 0.000000 -2.558537 2.745521 6.759942 1.164538 -2.137312 2.851942 1.460083 -0.950026 3.063362 3.557270 4.780936 13.142047 4.050379 3.650625 3.242878 -23.990589 4.578306 5.342818 -63.432861 -3.277156 6.213885 11.632691 -19.077246 7.498607 -5.744631 0.393540 -8.918285 21.854328 -2.825006 5.098177 63.408814 1.443934 8.708342 -14.775423 22.964239 -1.281913 9.083291 -0.817183 -10.979042 
1.767633 0.750559 0.980611 -88.095876 2.692571 84.089843 1.310436 -0.651035 5.821438 -2.945597 -15.055251 7.140564 7.560535 9.555660 -20.004620 0.000000 -0.000000 0.000000 3.336133 -2.466000 3.403283 2.988518 2.300388 10.953410 0.885809 -3.377422 -15.894946 0.000000 -0.000000 0.000000 -1.822686 2.344986 6.148737 1.255576 -1.787723 2.805336 1.372414 -0.995958 3.586682 3.836687 4.899576 11.951617 3.961657 3.488360 3.694788 -24.062349 4.756738 5.145818 -63.400354 -3.934201 6.449777 11.354126 -20.047424 7.131291 -6.743759 -2.212930 -7.812844 21.356531 -3.197464 4.776114 63.883778 1.530428 8.940336 -14.621176 22.853946 -1.247532 10.186268 -0.168093 -11.877626 
1.768037 0.750523 0.980020 -88.043620 2.922825 84.095555 1.642872 -0.375377 5.722315 -3.102679 -15.324563 7.251814 7.492030 9.477380 -19.893714 0.000000 -0.000000 0.000000 3.555090 -3.015287 3.158893 2.928199 2.864686 11.274478 0.781203 -3.517244 -15.896566 0.000000 -0.000000 0.000000 -1.484040 2.312493 6.254163 1.263539 -1.793191 2.730075 1.425774 -0.914565 3.697345 3.582640 4.760115 11.455184 4.001574 3.595749 3.234129 -23.952967 4.459191 5.103871 -64.018843 -3.771856 6.425054 12.014090 -19.783311 6.842953 -5.699899 0.025154 -8.863298 21.217335 -3.070048 4.723862 63.997062 1.421946 8.658113 -14.816299 22.773270 -1.733006 9.306658 0.243737 -12.152104 
1.767886 0.750211 0.979554 -88.010084 2.924784 83.962005 1.650940 -0.397206 6.017275 -3.120401 -15.385330 7.013198 7.489742 9.530139 -19.846248 0.000000 -0.000000 0.000000 3.539716 -2.593274 3.392458 2.927136 2.631000 11.194417 0.818542 -3.761983 -15.906781 0.000000 -0.000000 0.000000 -1.458223 2.313750 6.442580 1.244905 -1.662709 2.761837 1.456459 -0.821555 3.707549 3.504937 4.721206 10.884436 3.944067 3.520172 2.884134 -24.074812 4.309366 4.742990 -63.950266 -4.197184 6.429887 11.915032 -20.417820 6.308919 -5.754829 -0.105150 -9.317026 21.298913 -2.978454 4.636689 63.922681 1.263880 8.824070 -14.933080 23.016654 -1.745717 9.471631 0.012911 -11.992888 
1.768196 0.750106 0.979296 -87.828252 2.908784 83.905039 1.669435 -0.474039 6.029883 -3.225587 -15.384398 7.039366 7.369886 9.403351 -19.756521 0.000000 -0.000000 0.000000 3.487426 -2.635541 3.485908 2.904546 2.469083 11.141980 0.856330 -3.789505 -15.911073 0.000000 -0.000000 0.000000 -1.517582 2.325753 6.525657 1.264755 -1.704333 2.887334 1.488604 -0.786556 3.669117 3.436832 4.737961 10.711151 3.987570 3.511335 2.632545 -24.017234 4.105802 4.603154 -63.992391 -4.525038 6.557075 11.790800 -20.882109 6.107646 -5.356445 -0.431374 -9.792275 21.206144 -2.889248 4.496390 64.020744 1.322942 8.864717 -14.862765 23.009700 -1.721114 9.375210 0.043051 -12.105936 
1.768157 0.749499 0.979365 -87.601162 3.017189 83.892702 1.733023 -0.532823 6.114426 -3.133344 -15.464859 6.872383 7.353703 9.265794 -19.782578 0.000000 -0.000000 0.000000 3.563063 -2.814178 3.599293 2.878079 2.543242 10.976557 0.856990 -3.854821 -15.847229 0.000000 -0.000000 0.000000 -1.382681 2.209455 6.341759 1.248166 -1.718341 3.087131 1.468552 -0.691700 3.762487 3.327407 4.823798 10.035548 3.966257 3.469690 2.516341 -24.057582 3.739805 4.415006 -64.076123 -5.026656 6.761517 11.723565 -21.473325 5.745572 -4.882045 -0.817782 -10.297821 21.357098 -2.622185 4.398050 63.915773 1.478435 8.969899 -14.898448 23.156015 -1.870201 9.145496 0.046051 -12.120695 
1.768138 0.749062 0.979246 -87.495093 3.042690 83.869197 1.738785 -0.503385 6.137453 -3.102373 -15.523120 6.840896 7.287173 9.226654 -19.754711 0.000000 -0.000000 0.000000 3.624600 -2.918882 3.692508 2.733595 2.537360 10.913294 0.927415 -3.839373 -15.924871 0.000000 -0.000000 0.000000 -1.407911 2.249383 6.177234 1.281063 -1.696040 3.282814 1.529171 -0.625863 3.764715 3.180500 4.853854 9.620379 4.003726 3.415680 2.186623 -24.029347 3.517396 4.414083 -64.145356 -5.292449 6.936608 11.575145 -23.141712 5.584109 -4.570589 -0.583996 -10.502822 21.277702 -2.317385 4.427857 63.999398 1.514226 8.943651 -15.063358 23.463593 -2.057446 9.161028 -0.003994 -12.142566 
1.768240 0.747969 0.979327 -87.214917 3.076016 83.933377 1.588756 -0.669461 6.062465 -2.923556 -15.633782 6.842014 7.176955 9.141797 -19.632879 0.000000 -0.000000 0.000000 3.617472 -3.155909 3.700258 2.593761 2.551626 10.821186 1.007532 -3.929381 -15.887079 0.000000 -0.000000 0.000000 -1.230609 2.191056 6.069794 1.233139 -1.678668 3.221461 1.476803 -0.674366 3.822576 3.203496 4.888143 8.931277 3.933482 3.328239 2.077391 -24.102240 3.537614 4.125103 -64.247972 -5.578440 7.201800 11.576949 -24.583613 5.647478 -4.306757 -0.625778 -10.594399 21.342529 -2.238264 4.294163 63.855591 1.615350 9.037353 -15.068920 23.906576 -2.262239 9.018218 -0.068222 -11.902379 
1.767859 0.747488 0.979466 -87.160487 3.127716 83.823709 1.585267 -0.720488 6.350771 -2.818028 -15.677990 6.590005 7.265574 9.135796 -19.660851 0.000000 -0.000000 0.000000 3.578369 -3.409324 3.976683 2.582337 2.570743 10.633421 1.089612 -3.761920 -15.877168 0.000000 -0.000000 0.000000 -1.159211 2.190289 5.872784 1.231639 -1.621386 3.429981 1.469846 -0.632499 3.960837 3.163037 4.895230 8.441201 3.884866 3.279390 1.869429 -24.094270 3.489119 3.843430 -64.352798 -5.796162 7.523050 11.509112 -26.228331 5.914347 -3.926762 -0.706056 -10.507427 21.375313 -2.130159 4.025384 63.751714 1.698085 9.067074 -15.073116 24.398591 -2.394510 8.850340 0.028341 -11.830874 
1.770625 0.747323 0.979519 -87.444979 2.885557 84.313585 1.283809 -0.931475 5.534970 -2.909414 -15.307267 6.813434 7.358179 9.174944 -19.521112 0.000000 -0.000000 0.000000 3.373101 -2.999868 2.903171 2.587620 2.356385 11.284445 1.146107 -3.677840 -16.021148 0.000000 -0.000000 0.000000 -1.539195 2.535131 5.761374 1.322389 -1.462373 3.078129 1.566540 -0.742447 3.851730 3.295631 5.014118 7.834284 3.886130 3.194377 1.691194 -24.095755 3.384394 3.570390 -64.467528 -6.165842 7.981389 11.573794 -27.539760 5.985902 -3.664740 -0.819260 -10.442810 21.344953 -2.024438 3.805330 63.803086 1.923686 9.349247 -15.379045 24.841139 -2.713122 8.635598 0.520488 -12.081753 
1.769833 0.746579 0.979179 -87.789497 2.879668 84.031081 1.250012 -0.599710 6.010531 -2.876676 -15.317573 6.629288 7.443059 9.229624 -19.757159 0.000000 -0.000000 0.000000 3.400950 -2.920890 2.984744 2.361089 2.348745 11.776976 1.248138 -3.509221 -16.331678 0.000000 -0.000000 0.000000 -1.463181 2.508856 5.683551 1.281511 -1.230442 3.254352 1.500290 -0.588403 4.110577 3.308465 5.085728 6.968845 3.745750 3.045620 1.758581 -24.045239 3.358766 3.240697 -64.657866 -6.467981 8.095975 11.513291 -28.497223 5.973951 -3.773406 -1.264831 -10.834038 21.353335 -1.910755 3.458049 63.798575 2.165252 9.454048 -15.475350 25.321955 -2.805195 8.581302 0.425766 -11.879617 
1.770654 0.746266 0.979620 -87.685238 2.903544 84.139937 1.185114 -0.983600 5.800428 -2.862708 -15.059739 6.747971 7.270098 9.284450 -19.711255 0.000000 -0.000000 0.000000 3.245896 -2.770512 3.169577 2.659129 2.311427 11.136840 1.283547 -3.644296 -15.855882 0.000000 -0.000000 0.000000 -1.451781 2.508434 5.733291 1.223251 -1.371895 3.212452 1.510331 -0.629515 3.957116 3.277897 5.065299 6.490567 3.703584 3.016775 1.516295 -24.201300 3.335160 3.128335 -64.559823 -6.461558 8.304890 11.481343 -29.528944 6.001194 -3.586508 -1.312576 -10.957555 21.536691 -1.831097 3.340243 63.593932 2.337997 9.642836 -15.465277 25.935359 -2.863474 8.474056 0.478322 -11.799888 
1.770060 0.745663 0.979476 -87.885615 3.033627 83.968444 1.268247 -0.641963 6.183813 -2.719696 -15.317133 6.479029 7.229596 9.238878 -19.660040 0.000000 -0.000000 0.000000 3.359137 -2.816950 3.398266 2.597364 2.505488 11.042499 1.337182 -3.639859 -15.936198 0.000000 -0.000000 0.000000 -1.304989 2.470915 5.649088 1.243351 -1.212155 3.335645 1.479533 -0.635470 4.170914 3.318578 5.155359 5.701970 3.606025 2.993083 1.510826 -24.295118 3.032889 2.951417 -64.583202 -6.533974 8.443334 11.545003 -29.681923 6.019796 -3.364905 -1.564695 -10.962411 21.568808 -1.714842 3.044977 63.495066 2.378128 9.763839 -15.494906 26.590862 -2.982952 8.252125 0.544703 -11.881697 
1.772162 0.745524 0.979801 -87.423160 2.961866 84.291262 1.133056 -1.338507 5.448719 -2.910255 -15.103300 7.000957 7.265239 9.242480 -19.541787 0.000000 -0.000000 0.000000 3.271509 -2.574624 3.001993 2.690173 2.203144 10.941972 1.325474 -4.024926 -15.723811 0.000000 -0.000000 0.000000 -1.486023 2.489760 5.734709 1.244563 -1.518216 3.092187 1.533323 -0.863049 4.041238 3.314808 5.208505 5.205176 3.577859 2.904368 1.237994 -24.302188 2.935294 2.982989 -64.520679 -6.618386 8.626314 11.632798 -30.010820 5.856885 -3.380086 -1.550853 -11.056298 21.748807 -1.565267 2.988995 63.454962 2.535637 10.006342 -15.804245 27.001008 -3.186471 8.139285 0.510527 -11.908297 
1.772404 0.744973 0.980104 -87.466508 2.934088 84.301015 1.021890 -1.414959 5.568086 -2.807515 -15.089022 6.778910 7.319365 9.334628 -19.648378 0.000000 -0.000000 0.000000 3.199649 -2.546285 3.017739 2.727189 2.198378 10.912652 1.381151 -4.074321 -15.653617 0.000000 -0.000000 0.000000 -1.573021 2.460890 5.744048 1.244879 -1.602426 3.079778 1.593435 -0.810144 4.013013 3.388405 5.246399 4.615085 3.499012 2.803712 1.113960 -24.332709 2.919090 2.802857 -64.512670 -6.497498 8.662809 11.567638 -29.825107 5.910067 -3.524363 -1.603075 -10.990079 21.863252 -1.548818 2.768733 63.351764 2.607384 10.179703 -15.788322 27.361115 -3.064678 8.127792 0.595031 -11.697029 
